<?xml version="1.0" encoding="UTF-8" standalone="no"?>
<!-- Created with Inkscape (http://www.inkscape.org/) -->

<svg
   width="700"
   height="450"
   viewBox="0 0 185.20833 119.0625"
   version="1.1"
   id="svg1"
   xml:space="preserve"
   inkscape:version="1.3.2 (1:1.3.2+202311252150+091e20ef0f)"
   sodipodi:docname="cfp pydaynea2024.svg"
   inkscape:export-filename="logo.png"
   inkscape:export-xdpi="96"
   inkscape:export-ydpi="96"
   xmlns:inkscape="http://www.inkscape.org/namespaces/inkscape"
   xmlns:sodipodi="http://sodipodi.sourceforge.net/DTD/sodipodi-0.dtd"
   xmlns="http://www.w3.org/2000/svg"
   xmlns:svg="http://www.w3.org/2000/svg"><sodipodi:namedview
     id="namedview1"
     pagecolor="#ffffff"
     bordercolor="#666666"
     borderopacity="1.0"
     inkscape:showpageshadow="2"
     inkscape:pageopacity="0.0"
     inkscape:pagecheckerboard="0"
     inkscape:deskcolor="#d1d1d1"
     inkscape:document-units="mm"
     showguides="false"
     inkscape:zoom="0.7707143"
     inkscape:cx="319.18442"
     inkscape:cy="481.37163"
     inkscape:window-width="1920"
     inkscape:window-height="1051"
     inkscape:window-x="0"
     inkscape:window-y="0"
     inkscape:window-maximized="1"
     inkscape:current-layer="layer1"
     showgrid="false"
     inkscape:export-bgcolor="#ffffffff"><sodipodi:guide
       position="162.10602,395.18715"
       orientation="0,-1"
       id="guide1"
       inkscape:locked="false" /></sodipodi:namedview><defs
     id="defs1" /><g
     inkscape:label="Capa 1"
     inkscape:groupmode="layer"
     id="layer1"><rect
       style="opacity:1;fill:#6f917c;fill-opacity:1;stroke:none;stroke-width:0.402193"
       id="rect4"
       width="186.61816"
       height="119.72165"
       x="-0.86603576"
       y="-0.50376636" /><rect
       style="opacity:0.3;fill:#000000;fill-opacity:1;stroke:#000000;stroke-width:0.160132;stroke-dasharray:none"
       id="rect42"
       width="99.177925"
       height="165.61389"
       x="44.934719"
       y="-79.856323"
       ry="0"
       inkscape:transform-center-x="-73.429134"
       inkscape:transform-center-y="71.882374"
       transform="matrix(0.70513504,-0.70907304,0.70607099,0.70814106,0,0)" /><g
       id="g2"
       transform="translate(-7.9982387,-30.400016)"><rect
         style="opacity:0.3;fill:#000000;fill-opacity:1;stroke:#000000;stroke-width:0.0994231;stroke-dasharray:none"
         id="rect35"
         width="61.577774"
         height="102.82666"
         x="32.343945"
         y="158.46283"
         ry="0"
         inkscape:transform-center-x="-73.429134"
         inkscape:transform-center-y="71.882374"
         transform="matrix(0.70513503,-0.70907305,0.70607099,0.70814106,0,0)" /><ellipse
         style="fill:#475d50;fill-opacity:1;stroke:none;stroke-width:0.649691"
         id="path2"
         cx="158.08235"
         cy="69.130905"
         rx="31.043381"
         ry="31.10639" /><path
         id="ellipse20"
         style="opacity:0.3;fill:#000000;fill-opacity:1;stroke-width:0.652236"
         d="m 150.54801,59.517103 3.86751,3.878624 -11.5325,11.565652 9.98447,10.013175 -0.58015,0.58182 13.64136,13.680563 a 31.054575,31.338571 35.811535 0 0 14.0953,-8.10113 31.054575,31.338571 35.811535 0 0 8.07811,-14.136011 l -23.62583,-23.693737 -5.22377,5.238775 -0.71223,-0.714284 -6.08789,-0.223303 z" /><g
         id="g30"
         transform="matrix(0.25929971,0,0,0.26004497,72.154013,-15.367341)"><path
           id="rect21"
           style="opacity:1;fill:#31bafe;fill-opacity:1;stroke:none;stroke-width:0.695189"
           d="m 325.31813,257.54759 c -13.22978,0 -23.8802,10.65093 -23.8802,23.88071 v 6.9572 h 28.97601 v -30.83791 z m -7.23109,11.28871 a 5.4168396,5.4168396 0 0 1 5.41673,5.41673 5.4168396,5.4168396 0 0 1 -5.41673,5.41672 5.4168396,5.4168396 0 0 1 -5.41724,-5.41672 5.4168396,5.4168396 0 0 1 5.41724,-5.41673 z m -29.04318,26.42888 c -13.2298,0 -23.8802,10.65091 -23.8802,23.88071 v 11.62152 c 0,13.22979 10.6504,23.88071 23.8802,23.88071 h 41.37008 v -59.38294 z" /><path
           id="path30"
           style="opacity:1;fill:#fbb44c;fill-opacity:1;stroke:none;stroke-width:0.695189"
           d="m 334.78783,395.92397 c 13.22978,0 23.8802,-10.65093 23.8802,-23.88071 v -6.9572 h -28.97601 v 30.83791 z m 7.23109,-11.28871 a 5.4168396,5.4168396 0 0 1 -5.41673,-5.41673 5.4168396,5.4168396 0 0 1 5.41673,-5.41672 5.4168396,5.4168396 0 0 1 5.41724,5.41672 5.4168396,5.4168396 0 0 1 -5.41724,5.41673 z m 29.04318,-26.42888 c 13.2298,0 23.8802,-10.65091 23.8802,-23.88071 v -11.62152 c 0,-13.22979 -10.6504,-23.88071 -23.8802,-23.88071 h -41.37008 v 59.38294 z" /><path
           id="rect22"
           style="opacity:1;fill:#2b9ed7;fill-opacity:1;stroke:none;stroke-width:0.552045"
           d="m 329.69202,327.15832 h 7.3117 c 13.2617,0 23.93807,-10.67639 23.93807,-23.93807 v -21.56561 c 0,-13.26169 -10.67637,-23.93807 -23.93807,-23.93807 h -7.3117 z" /><path
           id="path29"
           style="opacity:1;fill:#ffd25d;fill-opacity:1;stroke:none;stroke-width:0.552045"
           d="m 329.69202,395.99554 v -69.44175 h -4.33772 c -13.26169,0 -23.93807,10.67638 -23.93807,23.93807 v 21.56561 c 0,13.26168 10.67638,23.93807 23.93807,23.93807 z" /></g></g><text
       xml:space="preserve"
       style="font-style:normal;font-variant:normal;font-weight:bold;font-stretch:normal;font-size:19.3815px;line-height:1.25;font-family:Gayathri;-inkscape-font-specification:'Gayathri Bold';font-variation-settings:normal;text-align:center;text-anchor:middle;opacity:0.5;vector-effect:none;fill:#000000;fill-opacity:1;stroke-width:0.363403;stroke-linecap:butt;stroke-linejoin:miter;stroke-miterlimit:4;stroke-dasharray:none;stroke-dashoffset:0;stroke-opacity:1;-inkscape-stroke:none;stop-color:#000000;stop-opacity:1"
       x="78.336143"
       y="222.94543"
       id="text1"
       transform="matrix(0.99856605,0,-0.14543834,1.001436,0,0)"><tspan
         sodipodi:role="line"
         style="font-style:normal;font-variant:normal;font-weight:bold;font-stretch:normal;font-size:19.3815px;font-family:Gayathri;-inkscape-font-specification:'Gayathri Bold';font-variation-settings:normal;vector-effect:none;fill:#000000;fill-opacity:1;stroke-width:0.363403;stroke-linecap:butt;stroke-linejoin:miter;stroke-miterlimit:4;stroke-dasharray:none;stroke-dashoffset:0;stroke-opacity:1;-inkscape-stroke:none;stop-color:#000000;stop-opacity:1"
         x="78.336143"
         y="222.94543"
         id="tspan1">PyDay NEA 2024</tspan></text><g
       id="g1"
       transform="matrix(1.6925396,0,0,1.6925396,-29.771372,-61.391067)"><rect
         style="opacity:0.3;fill:#000000;fill-opacity:1;stroke:#000000;stroke-width:0.0994231;stroke-dasharray:none"
         id="rect1"
         width="61.577774"
         height="102.82666"
         x="-57.54224"
         y="83.506317"
         ry="0"
         inkscape:transform-center-x="-73.429134"
         inkscape:transform-center-y="71.882374"
         transform="matrix(0.70513503,-0.70907305,0.70607099,0.70814106,0,0)" /><ellipse
         style="fill:#475d50;fill-opacity:1;stroke:none;stroke-width:0.649691"
         id="ellipse1"
         cx="41.775837"
         cy="79.786987"
         rx="31.043381"
         ry="31.10639" /></g><text
       xml:space="preserve"
       style="font-style:normal;font-variant:normal;font-weight:bold;font-stretch:normal;font-size:19.3815px;line-height:1.25;font-family:Gayathri;-inkscape-font-specification:'Gayathri Bold';text-align:center;text-anchor:middle;fill:#ffffff;stroke-width:0.363403"
       x="77.474678"
       y="221.93869"
       id="text39"
       transform="matrix(0.99856605,0,-0.14543834,1.001436,0,0)"><tspan
         sodipodi:role="line"
         style="font-style:normal;font-variant:normal;font-weight:bold;font-stretch:normal;font-size:19.3815px;font-family:Gayathri;-inkscape-font-specification:'Gayathri Bold';fill:#ffffff;stroke-width:0.363403"
         x="77.474678"
         y="221.93869"
         id="tspan39">PyDay NEA 2024</tspan></text><text
       xml:space="preserve"
       style="font-style:normal;font-variant:normal;font-weight:normal;font-stretch:normal;font-size:7.18665px;line-height:1.25;font-family:okolaks;-inkscape-font-specification:okolaks;text-align:center;letter-spacing:0px;text-anchor:middle;opacity:0.9;fill:#ffffff;stroke-width:0.134749"
       x="116.0164"
       y="212.1868"
       id="text4"
       transform="scale(0.99856605,1.001436)"><tspan
         sodipodi:role="line"
         id="tspan4"
         style="font-style:normal;font-variant:normal;font-weight:normal;font-stretch:normal;font-size:7.18665px;font-family:okolaks;-inkscape-font-specification:okolaks;letter-spacing:0px;fill:#ffffff;stroke-width:0.134749"
         x="118.26223"
         y="212.1868"> </tspan></text><text
       xml:space="preserve"
       style="font-style:normal;font-variant:normal;font-weight:normal;font-stretch:normal;font-size:7.14607px;line-height:1.25;font-family:okolaks;-inkscape-font-specification:okolaks;text-align:center;text-anchor:middle;opacity:0.9;fill:#ffffff;stroke-width:0.133988"
       x="117.42523"
       y="113.71868"
       id="text2"
       transform="scale(0.99856605,1.001436)"><tspan
         sodipodi:role="line"
         id="tspan2"
         style="font-style:normal;font-variant:normal;font-weight:normal;font-stretch:normal;font-size:7.14607px;font-family:okolaks;-inkscape-font-specification:okolaks;fill:#ffffff;stroke-width:0.133988"
         x="117.42523"
         y="113.71868">Resistencia,Chaco,Pellegrini 69</tspan></text><text
       xml:space="preserve"
       style="font-style:normal;font-variant:normal;font-weight:normal;font-stretch:normal;font-size:7.14607px;line-height:1.25;font-family:okolaks;-inkscape-font-specification:okolaks;text-align:center;text-anchor:middle;opacity:0.9;fill:#ffffff;stroke-width:0.133988"
       x="34.312916"
       y="113.94765"
       id="text3"
       transform="scale(0.99856605,1.001436)"><tspan
         sodipodi:role="line"
         id="tspan3"
         style="font-style:normal;font-variant:normal;font-weight:normal;font-stretch:normal;font-size:7.14607px;font-family:okolaks;-inkscape-font-specification:okolaks;fill:#ffffff;stroke-width:0.133988"
         x="34.312916"
         y="113.94765">14/12/2024</tspan></text><text
       xml:space="preserve"
       style="font-style:normal;font-variant:normal;font-weight:bold;font-stretch:normal;font-size:9.6818px;line-height:1.25;font-family:Gayathri;-inkscape-font-specification:'Gayathri Bold';text-align:center;text-anchor:middle;fill:#ffffff;stroke-width:0.415558"
       x="53.154659"
       y="51.18153"
       id="text5"
       transform="matrix(0.99856605,0,-0.14543834,1.001436,0,0)"><tspan
         sodipodi:role="line"
         style="font-style:normal;font-variant:normal;font-weight:bold;font-stretch:normal;font-size:9.6818px;font-family:Gayathri;-inkscape-font-specification:'Gayathri Bold';fill:#ffffff;stroke-width:0.415558"
         x="53.154659"
         y="51.18153"
         id="tspan8">¡Queremos </tspan><tspan
         sodipodi:role="line"
         style="font-style:normal;font-variant:normal;font-weight:bold;font-stretch:normal;font-size:9.6818px;font-family:Gayathri;-inkscape-font-specification:'Gayathri Bold';fill:#ffffff;stroke-width:0.415558"
         x="53.154659"
         y="63.283779"
         id="tspan9">escucharte hablar</tspan><tspan
         sodipodi:role="line"
         style="font-style:normal;font-variant:normal;font-weight:bold;font-stretch:normal;font-size:9.6818px;font-family:Gayathri;-inkscape-font-specification:'Gayathri Bold';fill:#ffffff;stroke-width:0.415558"
         x="53.154659"
         y="75.386024"
         id="tspan10">sobre el tema tech</tspan><tspan
         sodipodi:role="line"
         style="font-style:normal;font-variant:normal;font-weight:bold;font-stretch:normal;font-size:9.6818px;font-family:Gayathri;-inkscape-font-specification:'Gayathri Bold';fill:#ffffff;stroke-width:0.415558"
         x="53.154659"
         y="87.488274"
         id="tspan11">que amás!</tspan><tspan
         sodipodi:role="line"
         style="font-style:normal;font-variant:normal;font-weight:bold;font-stretch:normal;font-size:9.6818px;font-family:Gayathri;-inkscape-font-specification:'Gayathri Bold';fill:#ffffff;stroke-width:0.415558"
         x="53.154659"
         y="99.590523"
         id="tspan6" /></text><text
       xml:space="preserve"
       style="font-style:normal;font-variant:normal;font-weight:bold;font-stretch:normal;font-size:13.5165px;line-height:1.25;font-family:Gayathri;-inkscape-font-specification:'Gayathri Bold';text-align:center;text-anchor:middle;fill:#000000;stroke-width:0.22637079;font-variation-settings:normal;opacity:0.5;vector-effect:none;fill-opacity:1;stroke-linecap:butt;stroke-linejoin:miter;stroke-miterlimit:4;stroke-dasharray:none;stroke-dashoffset:0;stroke-opacity:1;-inkscape-stroke:none;stop-color:#000000;stop-opacity:1"
       x="78.23188"
       y="19.329617"
       id="text15"
       transform="matrix(0.99856605,0,-0.14543834,1.001436,0,0)"><tspan
         sodipodi:role="line"
         style="font-style:normal;font-variant:normal;font-weight:bold;font-stretch:normal;font-size:13.5165px;font-family:Gayathri;-inkscape-font-specification:'Gayathri Bold';fill:#000000;stroke-width:0.22637079;font-variation-settings:normal;vector-effect:none;fill-opacity:1;stroke-linecap:butt;stroke-linejoin:miter;stroke-miterlimit:4;stroke-dasharray:none;stroke-dashoffset:0;stroke-opacity:1;-inkscape-stroke:none;stop-color:#000000;stop-opacity:1"
         x="78.23188"
         y="19.329617"
         id="tspan15">Llamado a propuestas</tspan></text><text
       xml:space="preserve"
       style="font-style:normal;font-variant:normal;font-weight:bold;font-stretch:normal;font-size:13.5165px;line-height:1.25;font-family:Gayathri;-inkscape-font-specification:'Gayathri Bold';text-align:center;text-anchor:middle;fill:#ffffff;stroke-width:0.253432"
       x="77.624992"
       y="18.801208"
       id="text12"
       transform="matrix(0.99856605,0,-0.14543834,1.001436,0,0)"><tspan
         sodipodi:role="line"
         style="font-style:normal;font-variant:normal;font-weight:bold;font-stretch:normal;font-size:13.5165px;font-family:Gayathri;-inkscape-font-specification:'Gayathri Bold';fill:#ffffff;stroke-width:0.253432"
         x="77.624992"
         y="18.801208"
         id="tspan12">Llamado a propuestas</tspan></text><g
       id="g12"
       transform="matrix(0.84470809,0,0,0.84470809,-54.707025,-42.501433)"><path
         id="path41"
         style="font-weight:bold;font-size:22.8989px;line-height:1.25;font-family:Gayathri;-inkscape-font-specification:'Gayathri Bold';text-align:center;text-anchor:middle;opacity:0.5;fill:#000000;stroke-width:0.267987"
         d="m 345.09297,251.73499 c -1.42516,0.0313 -2.85244,0.79101 -3.4991,2.09142 -0.21981,0.48454 -0.50435,1.13141 -0.17152,1.62186 0.52523,0.4549 1.5564,0.392 1.88955,-0.2621 0.0753,-0.92627 0.69417,-1.92566 1.69938,-1.99395 0.808,-0.16805 1.55165,0.56541 1.49776,1.36393 -0.009,1.26167 -1.29099,1.99041 -2.25247,2.46746 -1.21607,0.60709 -2.69432,1.05093 -3.3651,2.34599 -0.34412,0.66178 -0.60015,1.41713 -0.58579,2.16549 0.29516,0.68748 1.18043,0.51333 1.77691,0.53396 1.55834,-0.0185 3.12112,0.0361 4.67684,-0.0256 0.50099,-0.0334 1.07641,-0.57544 0.71316,-1.07156 -0.52501,-0.56254 -1.37635,-0.28639 -2.05267,-0.35353 -0.96842,0 -1.93686,0 -2.90529,0 0.17279,-0.8311 0.78896,-1.49934 1.5726,-1.80301 1.51831,-0.72141 3.27207,-1.37558 4.15459,-2.91021 0.66418,-1.15973 0.39408,-2.8122 -0.76557,-3.55574 -0.69191,-0.47685 -1.55245,-0.65702 -2.38328,-0.61441 z m 16.21606,0 c -1.42526,0.0313 -2.85227,0.79127 -3.4991,2.09142 -0.21948,0.48453 -0.50442,1.13166 -0.17152,1.62186 0.52659,0.45579 1.55535,0.39057 1.892,-0.2621 0.0701,-0.92753 0.69357,-1.92543 1.69693,-1.99395 0.80975,-0.16814 1.55158,0.56679 1.49898,1.36637 -0.011,1.25883 -1.29338,1.98826 -2.25247,2.46502 -1.21616,0.60798 -2.69539,1.05003 -3.36631,2.34599 -0.34377,0.66173 -0.60049,1.41723 -0.58579,2.16549 0.29547,0.68662 1.18046,0.51375 1.77691,0.53396 1.55833,-0.0185 3.12112,0.0361 4.67684,-0.0256 0.50101,-0.0341 1.07694,-0.57508 0.71316,-1.07156 -0.52502,-0.56254 -1.37635,-0.28639 -2.05267,-0.35353 -0.96843,0 -1.93686,0 -2.90529,0 0.17585,-0.82953 0.78744,-1.50034 1.5726,-1.80301 1.51817,-0.72006 3.26997,-1.37497 4.15373,-2.90757 0.66389,-1.16019 0.39785,-2.81577 -0.76471,-3.55838 -0.69264,-0.47689 -1.55164,-0.65732 -2.38329,-0.61441 z m 9.77816,0.009 c -0.62865,-0.0325 -1.048,0.46694 -1.38196,0.926 -1.68634,2.03767 -3.40291,4.05277 -5.07058,6.10438 -0.28807,0.57719 0.41633,0.99358 0.92162,0.95453 1.13658,0 2.27316,0 3.40974,0 -0.0602,0.6534 -0.25823,1.30619 -0.2365,1.96026 0.30724,0.68316 1.32781,0.65836 1.84933,0.23772 0.36209,-0.42298 0.23514,-1.04723 0.37516,-1.55761 0.009,-0.4313 0.0737,-0.79803 0.59229,-0.64037 0.53753,0.0459 1.36475,-0.15946 1.32196,-0.83384 -0.1558,-0.67345 -1.00524,-0.62605 -1.54432,-0.60954 -0.13244,-0.21084 0.0874,-0.72654 0.0852,-1.05007 0.22083,-1.62476 0.50147,-3.24728 0.6862,-4.8734 -0.0642,-0.46331 -0.60535,-0.62159 -1.00817,-0.61806 z m -17.92276,0.007 c -1.65031,0.0866 -2.94154,1.39584 -3.5879,2.82992 -0.8571,1.84216 -1.13743,4.09202 -0.27412,5.98274 0.49497,1.09228 1.69273,1.76616 2.88253,1.65337 1.67063,-0.0601 2.98572,-1.38537 3.63819,-2.8328 0.85599,-1.83309 1.13775,-4.06963 0.29137,-5.95653 -0.51135,-1.13929 -1.71327,-1.79686 -2.95007,-1.6767 z m 0.25478,1.44338 c 0.77717,0.14443 0.94051,1.07433 1.03652,1.72977 0.18535,1.6656 -0.15036,3.32139 -0.96362,4.79149 -0.33346,0.60869 -1.02326,1.30678 -1.77715,0.97724 -0.71396,-0.47212 -0.75279,-1.44961 -0.81434,-2.2248 -0.0523,-1.47309 0.2893,-2.91761 1.01218,-4.21838 0.32006,-0.52993 0.81353,-1.13146 1.50641,-1.05532 z m 15.75648,5.09084 c -0.68512,0 -1.37024,0 -2.05535,0 0.82978,-0.99721 1.65956,-1.99441 2.48934,-2.9916 -0.14466,0.99719 -0.28932,1.99439 -0.43399,2.9916 z" /><text
         xml:space="preserve"
         style="font-style:normal;font-variant:normal;font-weight:bold;font-stretch:normal;font-size:14.2927px;line-height:1.25;font-family:Gayathri;-inkscape-font-specification:'Gayathri Bold';font-variation-settings:normal;text-align:center;text-anchor:middle;opacity:0.5;vector-effect:none;fill:#000000;fill-opacity:1;stroke-width:0.267987;stroke-linecap:butt;stroke-linejoin:miter;stroke-miterlimit:4;stroke-dasharray:none;stroke-dashoffset:0;stroke-opacity:1;-inkscape-stroke:none;stop-color:#000000;stop-opacity:1"
         x="267.58334"
         y="147.95087"
         id="text14"
         transform="matrix(0.99856605,0,-0.14543834,1.001436,0,0)"><tspan
           sodipodi:role="line"
           style="font-style:normal;font-variant:normal;font-weight:bold;font-stretch:normal;font-size:14.2927px;font-family:Gayathri;-inkscape-font-specification:'Gayathri Bold';font-variation-settings:normal;vector-effect:none;fill:#000000;fill-opacity:1;stroke-width:0.267987;stroke-linecap:butt;stroke-linejoin:miter;stroke-miterlimit:4;stroke-dasharray:none;stroke-dashoffset:0;stroke-opacity:1;-inkscape-stroke:none;stop-color:#000000;stop-opacity:1"
           x="267.58334"
           y="147.95087"
           id="tspan13">PyDay NEA </tspan><tspan
           sodipodi:role="line"
           style="font-style:normal;font-variant:normal;font-weight:bold;font-stretch:normal;font-size:14.2927px;font-family:Gayathri;-inkscape-font-specification:'Gayathri Bold';font-variation-settings:normal;vector-effect:none;fill:#000000;fill-opacity:1;stroke-width:0.267987;stroke-linecap:butt;stroke-linejoin:miter;stroke-miterlimit:4;stroke-dasharray:none;stroke-dashoffset:0;stroke-opacity:1;-inkscape-stroke:none;stop-color:#000000;stop-opacity:1"
           x="267.58334"
           y="165.81674"
           id="tspan14">2024</tspan></text><text
         xml:space="preserve"
         style="font-style:normal;font-variant:normal;font-weight:bold;font-stretch:normal;font-size:14.2927px;line-height:1.25;font-family:Gayathri;-inkscape-font-specification:'Gayathri Bold';text-align:center;text-anchor:middle;fill:#ffffff;stroke-width:0.267987"
         x="266.8649"
         y="147.32532"
         id="text39-9"
         transform="matrix(0.99856605,0,-0.14543834,1.001436,0,0)"><tspan
           sodipodi:role="line"
           style="font-style:normal;font-variant:normal;font-weight:bold;font-stretch:normal;font-size:14.2927px;font-family:Gayathri;-inkscape-font-specification:'Gayathri Bold';fill:#ffffff;stroke-width:0.267987"
           x="266.8649"
           y="147.32532"
           id="tspan38">PyDay NEA </tspan><tspan
           sodipodi:role="line"
           style="font-style:normal;font-variant:normal;font-weight:bold;font-stretch:normal;font-size:14.2927px;font-family:Gayathri;-inkscape-font-specification:'Gayathri Bold';fill:#ffffff;stroke-width:0.267987"
           x="266.8649"
           y="165.19119"
           id="tspan39-1">2024</tspan></text></g></g></svg>
