<?xml version="1.0" encoding="UTF-8" standalone="no"?>
<!-- Created with Inkscape (http://www.inkscape.org/) -->

<svg
   width="700"
   height="450"
   viewBox="0 0 185.20833 119.0625"
   version="1.1"
   id="svg1"
   xml:space="preserve"
   inkscape:version="1.3.2 (1:1.3.2+202311252150+091e20ef0f)"
   sodipodi:docname="logo.svg"
   inkscape:export-filename="logo.png"
   inkscape:export-xdpi="96"
   inkscape:export-ydpi="96"
   xmlns:inkscape="http://www.inkscape.org/namespaces/inkscape"
   xmlns:sodipodi="http://sodipodi.sourceforge.net/DTD/sodipodi-0.dtd"
   xmlns="http://www.w3.org/2000/svg"
   xmlns:svg="http://www.w3.org/2000/svg"><sodipodi:namedview
     id="namedview1"
     pagecolor="#ffffff"
     bordercolor="#666666"
     borderopacity="1.0"
     inkscape:showpageshadow="2"
     inkscape:pageopacity="0.0"
     inkscape:pagecheckerboard="0"
     inkscape:deskcolor="#d1d1d1"
     inkscape:document-units="mm"
     showguides="true"
     inkscape:zoom="1.5414286"
     inkscape:cx="350"
     inkscape:cy="225.11585"
     inkscape:window-width="1920"
     inkscape:window-height="1007"
     inkscape:window-x="0"
     inkscape:window-y="0"
     inkscape:window-maximized="1"
     inkscape:current-layer="layer1"
     showgrid="false"
     inkscape:export-bgcolor="#ffffffff"><sodipodi:guide
       position="162.10602,395.18715"
       orientation="0,-1"
       id="guide1"
       inkscape:locked="false" /></sodipodi:namedview><defs
     id="defs1" /><g
     inkscape:label="Capa 1"
     inkscape:groupmode="layer"
     id="layer1"><rect
       style="opacity:1;fill:#3b5a72;fill-opacity:1;stroke:none;stroke-width:0.402193"
       id="rect4"
       width="186.61816"
       height="119.72165"
       x="-0.86603576"
       y="-0.50376636" /><rect
       style="opacity:0.3;fill:#000000;fill-opacity:1;stroke:#000000;stroke-width:0.160132;stroke-dasharray:none"
       id="rect41"
       width="99.177925"
       height="165.61389"
       x="79.190361"
       y="59.145046"
       ry="0"
       inkscape:transform-center-x="-73.429134"
       inkscape:transform-center-y="71.882374"
       transform="matrix(0.70513504,-0.70907304,0.70607099,0.70814106,0,0)" /><rect
       style="opacity:0.3;fill:#000000;fill-opacity:1;stroke:#000000;stroke-width:0.160132;stroke-dasharray:none"
       id="rect35"
       width="99.177925"
       height="165.61389"
       x="-59.014881"
       y="78.801796"
       ry="0"
       inkscape:transform-center-x="-73.429134"
       inkscape:transform-center-y="71.882374"
       transform="matrix(0.70513504,-0.70907304,0.70607099,0.70814106,0,0)" /><g
       id="g41"><ellipse
         style="fill:#314a5e;fill-opacity:1;stroke:none;stroke-width:1.0464"
         id="path2"
         cx="51.697628"
         cy="65.196556"
         rx="49.998852"
         ry="50.100334" /><path
         id="ellipse20"
         style="opacity:0.3;fill:#000000;fill-opacity:1;stroke-width:1.0505"
         d="m 39.562731,49.712455 6.229057,6.24696 -18.574396,18.627782 16.081125,16.127342 -0.934405,0.937087 21.970939,22.034084 A 50.016881,50.474289 35.811535 0 0 87.037121,100.63793 50.016881,50.474289 35.811535 0 0 100.04782,77.870296 L 61.995763,39.708871 53.582307,48.146507 52.43517,46.996072 42.629953,46.636418 Z" /><g
         id="g30"
         transform="matrix(0.41763132,0,0,0.41883163,-86.699622,-70.897354)"><path
           id="rect21"
           style="opacity:1;fill:#31bafe;fill-opacity:1;stroke:none;stroke-width:0.695189"
           d="m 325.31813,257.54759 c -13.22978,0 -23.8802,10.65093 -23.8802,23.88071 v 6.9572 h 28.97601 v -30.83791 z m -7.23109,11.28871 a 5.4168396,5.4168396 0 0 1 5.41673,5.41673 5.4168396,5.4168396 0 0 1 -5.41673,5.41672 5.4168396,5.4168396 0 0 1 -5.41724,-5.41672 5.4168396,5.4168396 0 0 1 5.41724,-5.41673 z m -29.04318,26.42888 c -13.2298,0 -23.8802,10.65091 -23.8802,23.88071 v 11.62152 c 0,13.22979 10.6504,23.88071 23.8802,23.88071 h 41.37008 v -59.38294 z" /><path
           id="path30"
           style="opacity:1;fill:#fbb44c;fill-opacity:1;stroke:none;stroke-width:0.695189"
           d="m 334.78783,395.92397 c 13.22978,0 23.8802,-10.65093 23.8802,-23.88071 v -6.9572 h -28.97601 v 30.83791 z m 7.23109,-11.28871 a 5.4168396,5.4168396 0 0 1 -5.41673,-5.41673 5.4168396,5.4168396 0 0 1 5.41673,-5.41672 5.4168396,5.4168396 0 0 1 5.41724,5.41672 5.4168396,5.4168396 0 0 1 -5.41724,5.41673 z m 29.04318,-26.42888 c 13.2298,0 23.8802,-10.65091 23.8802,-23.88071 v -11.62152 c 0,-13.22979 -10.6504,-23.88071 -23.8802,-23.88071 h -41.37008 v 59.38294 z" /><path
           id="rect22"
           style="opacity:1;fill:#2b9ed7;fill-opacity:1;stroke:none;stroke-width:0.552045"
           d="m 329.69202,327.15832 h 7.3117 c 13.2617,0 23.93807,-10.67639 23.93807,-23.93807 v -21.56561 c 0,-13.26169 -10.67637,-23.93807 -23.93807,-23.93807 h -7.3117 z" /><path
           id="path29"
           style="opacity:1;fill:#ffd25d;fill-opacity:1;stroke:none;stroke-width:0.552045"
           d="m 329.69202,395.99554 v -69.44175 h -4.33772 c -13.26169,0 -23.93807,10.67638 -23.93807,23.93807 v 21.56561 c 0,13.26168 10.67638,23.93807 23.93807,23.93807 z" /></g></g><path
       id="path39"
       style="font-weight:bold;font-size:22.8989px;line-height:1.25;font-family:Gayathri;-inkscape-font-specification:'Gayathri Bold';text-align:center;text-anchor:middle;opacity:0.5;fill:#000000;stroke-width:0.429354"
       d="m 115.36522,34.360773 c -0.80914,0.02381 -1.68798,0.564984 -1.62776,1.468118 -0.66666,4.670656 -1.37751,9.33718 -2.01677,14.010398 0.20009,1.096756 1.67179,1.213855 2.52539,0.847656 1.05356,-0.348523 0.82203,-1.617792 1.02881,-2.47401 0.21696,-1.493689 0.43392,-2.987379 0.65088,-4.481068 2.1496,-0.05192 4.31077,0.10677 6.45312,-0.08398 2.51013,-0.376462 4.93606,-2.426834 4.97071,-5.097656 0.10131,-2.070541 -1.6874,-3.773788 -3.64483,-4.082757 -1.86234,-0.250946 -3.7574,-0.05009 -5.63252,-0.114509 -0.9022,0.0063 -1.80518,-0.01192 -2.70703,0.0078 z m 27.7207,-0.0059 c -0.84276,-0.0095 -1.81121,0.518456 -1.74696,1.47397 -0.65437,4.580156 -1.35218,9.156233 -1.9796,13.738921 0.17026,1.084051 1.52211,1.084745 2.37227,1.039063 2.10614,-0.08219 4.24446,0.194181 6.32699,-0.204968 3.3968,-0.675328 5.98881,-3.653644 6.66793,-6.980579 0.62603,-2.651015 0.19808,-5.841421 -2.02148,-7.652344 -1.59175,-1.347788 -3.77095,-1.505032 -5.76524,-1.416016 -1.28461,0.0014 -2.56943,-0.0027 -3.85391,0.002 z m -20.70898,2.310547 c 1.51405,0.04656 2.03137,2.046252 1.31641,3.175782 -0.49711,1.018273 -1.58563,1.76932 -2.75039,1.578125 -1.56042,0 -3.12084,0 -4.68125,0 0.22981,-1.584636 0.45963,-3.169271 0.68945,-4.753907 1.80859,0 3.61719,0 5.42578,0 z m 25.76172,0 c 1.58301,-0.09499 2.88936,1.192729 3.23785,2.665264 0.80618,2.90364 -0.22598,6.321849 -2.63043,8.17458 -1.44587,1.119165 -3.35791,0.719057 -5.04727,0.789063 -0.88345,0.235035 -0.90996,-0.271493 -0.69193,-0.989635 0.51463,-3.546424 1.02926,-7.092848 1.54389,-10.639272 1.19596,0 2.39193,0 3.58789,0 z m -10.125,1.63086 c -0.84319,-0.01138 -1.81094,0.519438 -1.74692,1.473976 -0.33812,2.031725 -0.50914,4.098301 -0.94943,6.108948 -0.43119,1.545801 -2.00885,3.110212 -3.71754,2.50287 -1.393,-0.591829 -1.44042,-2.390424 -1.16958,-3.667814 0.23524,-1.818015 0.58655,-3.633674 0.75339,-5.453137 -0.28492,-1.069501 -1.74793,-1.144277 -2.59858,-0.737329 -1.00549,0.415109 -0.72595,1.677186 -0.95806,2.532988 -0.19244,1.817926 -0.68291,3.619093 -0.64596,5.452248 0.0609,2.071777 1.75496,3.833278 3.76908,4.16204 1.32122,0.27609 2.76967,0.190244 3.96477,-0.478306 -0.26369,1.435219 -1.53195,2.630134 -3.03184,2.571315 -1.01508,0.07634 -2.16063,-0.254484 -2.65175,-1.213893 -0.83227,-0.68506 -2.39584,-0.558626 -2.95508,0.412109 -0.28127,0.862762 0.58891,1.575791 1.20324,2.045854 2.04663,1.303253 4.72286,1.337305 6.9784,0.594771 2.12126,-0.695784 3.66271,-2.684754 3.90586,-4.891119 0.46887,-3.38959 1.02423,-6.927012 1.48476,-10.380365 -0.0718,-0.778292 -0.97323,-1.043283 -1.63476,-1.035156 z m 40.875,0 c -0.84358,-0.01182 -1.80916,0.519894 -1.74701,1.473962 -0.33598,2.034885 -0.51558,4.102565 -0.95115,6.116826 -0.43697,1.543654 -2.00815,3.10131 -3.71573,2.495006 -1.35483,-0.573442 -1.44607,-2.312463 -1.18225,-3.564982 0.24317,-1.848581 0.58537,-3.693411 0.76997,-5.54425 -0.27346,-1.078897 -1.74919,-1.15839 -2.60249,-0.749048 -1.00549,0.415109 -0.72595,1.677186 -0.95806,2.532988 -0.19357,1.817847 -0.68117,3.618877 -0.64596,5.452248 0.0625,2.071579 1.75417,3.833581 3.76908,4.16204 1.32124,0.276067 2.76969,0.190448 3.96477,-0.478306 -0.25784,1.399649 -1.46662,2.583543 -2.93193,2.566908 -1.04064,0.09318 -2.23885,-0.212132 -2.74776,-1.20558 -0.83139,-0.690592 -2.39776,-0.563299 -2.95898,0.408203 -0.27964,0.916513 0.66427,1.649547 1.32422,2.13086 2.10114,1.232724 4.79119,1.262084 7.0427,0.43447 2.11842,-0.750341 3.56602,-2.827672 3.74842,-5.039955 0.47017,-3.405408 1.03504,-6.807181 1.44716,-10.214828 -0.11155,-0.741215 -0.98154,-0.981511 -1.625,-0.976562 z m -17.62891,0.06836 c -2.1861,0.128631 -4.67094,1.09325 -5.53711,3.265625 -0.37635,0.712779 0.15139,1.539844 0.92557,1.614283 0.93584,0.227236 2.23402,-0.14883 2.34445,-1.2491 0.79708,-1.370229 2.91262,-1.774845 4.18311,-0.845652 0.62701,0.542719 0.45471,1.521481 0.26953,2.1875 -1.95497,0.344218 -4.00029,-0.204513 -5.92745,0.416628 -1.66297,0.39017 -2.96887,1.908156 -2.98836,3.634476 -0.1365,1.661418 1.34827,2.937844 2.86327,3.247307 1.9621,0.465674 4.17446,0.279565 5.91191,-0.794504 0.67419,1.233837 2.72631,1.442865 3.51758,0.240234 0.30859,-0.569773 -0.15184,-1.072016 -0.56445,-1.404297 -0.2846,-1.056862 0.17822,-2.161788 0.243,-3.232527 0.10289,-1.515057 0.77241,-3.093992 0.21012,-4.585832 -0.87681,-2.062223 -3.44117,-2.590043 -5.45117,-2.494141 z m -1.16211,7.34961 c 1.01154,0.01394 2.0244,0.0928 3.03516,0.02148 -0.0909,1.900069 -2.19062,2.914271 -3.89063,2.830078 -0.76148,0.02689 -1.59475,-0.573192 -1.36328,-1.414062 0.0806,-1.212304 1.20657,-1.479003 2.21875,-1.4375 z" /><path
       id="path40"
       style="font-weight:bold;font-size:22.8989px;line-height:1.25;font-family:Gayathri;-inkscape-font-specification:'Gayathri Bold';text-align:center;text-anchor:middle;opacity:0.5;fill:#000000;stroke-width:0.429354"
       d="m 134.1035,62.751398 c -0.75181,-0.01523 -1.54582,0.500459 -1.47937,1.32944 -0.49646,3.418182 -0.99292,6.836363 -1.48938,10.254544 -2.22415,-3.687042 -4.38474,-7.419057 -6.64844,-11.078125 -0.87593,-0.753563 -2.40109,-0.663595 -3.21874,0.142578 -0.46646,0.810183 -0.32847,1.828596 -0.55063,2.72012 -0.58586,4.184937 -1.25927,8.366424 -1.79069,12.553508 0.2087,0.982377 1.59153,1.043821 2.32764,0.611138 0.76869,-0.497846 0.49202,-1.57896 0.7246,-2.350349 0.43425,-2.992592 0.8685,-5.985184 1.30275,-8.977776 2.22097,3.686408 4.37783,7.417628 6.63867,11.076172 0.88272,0.754528 2.43366,0.665539 3.24219,-0.162109 0.44683,-0.798524 0.3184,-1.799743 0.53503,-2.677146 0.5866,-4.188849 1.26038,-8.374232 1.79271,-12.565238 -0.0477,-0.646301 -0.83768,-0.888735 -1.38634,-0.876757 z m 24.27344,0 c -0.86743,-0.03063 -1.77734,0.362922 -2.06703,1.242589 -2.74341,4.8 -5.55321,9.568857 -8.25524,14.38827 -0.23064,0.943099 1.01314,1.305376 1.74024,1.121094 1.08249,-0.136873 1.28653,-1.395714 1.83896,-2.136428 0.5667,-0.985123 1.1334,-1.970246 1.7001,-2.955369 2.08399,0 4.16797,0 6.25195,0 0.47841,1.511549 0.83966,3.068659 1.38868,4.552735 0.78592,0.806527 2.28738,0.754184 3.09662,0.01199 0.61071,-0.713737 -0.13513,-1.623974 -0.23667,-2.400175 -1.31083,-4.382049 -2.555,-8.790216 -3.90718,-13.156063 -0.29306,-0.538585 -0.98872,-0.666191 -1.55043,-0.668646 z M 138.416,63.020929 c -0.86741,0.0053 -1.91955,0.514181 -1.86218,1.518893 -0.64778,4.554865 -1.35013,9.104848 -1.96399,13.662748 0.21628,1.086096 1.57549,1.118393 2.4543,1.068359 3.2175,-0.02791 6.4413,0.05464 9.65508,-0.03906 0.80798,-0.04025 1.7385,-0.912415 1.15234,-1.710938 -0.84494,-0.900778 -2.21383,-0.45135 -3.30039,-0.5625 -2.15508,0 -4.31016,0 -6.46524,0 0.22592,-1.554036 0.45183,-3.108073 0.67774,-4.662109 2.51269,-0.0315 5.03273,0.06207 7.54101,-0.04492 0.80091,-0.04356 1.70651,-0.913178 1.13477,-1.701172 -0.83721,-0.907163 -2.20904,-0.454557 -3.29258,-0.566406 -1.68242,0 -3.36484,0 -5.04726,0 0.22461,-1.550782 0.44922,-3.101563 0.67382,-4.652344 2.98287,-0.02815 5.972,0.05498 8.95118,-0.03906 0.80598,-0.04362 1.73192,-0.906786 1.15625,-1.707031 -0.84201,-0.907465 -2.2171,-0.454297 -3.3043,-0.566406 -2.72015,0.0013 -5.44058,-0.0026 -8.16055,0.002 z m 20.48242,9.078125 c -1.4095,0 -2.81901,0 -4.22851,0 0.93229,-1.620443 1.86458,-3.240885 2.79687,-4.861328 0.47722,1.620443 0.95443,3.240885 1.43164,4.861328 z" /><path
       id="path41"
       style="font-weight:bold;font-size:22.8989px;line-height:1.25;font-family:Gayathri;-inkscape-font-specification:'Gayathri Bold';text-align:center;text-anchor:middle;opacity:0.5;fill:#000000;stroke-width:0.429354"
       d="m 122.02733,91.401789 c -2.2833,0.0502 -4.57002,1.267325 -5.60606,3.350762 -0.35216,0.776306 -0.80804,1.81269 -0.2748,2.598456 0.8415,0.728813 2.49358,0.628049 3.02734,-0.419922 0.1207,-1.484021 1.11215,-3.08519 2.72264,-3.1946 1.29454,-0.269233 2.48598,0.905872 2.39964,2.185222 -0.014,2.021377 -2.06836,3.188919 -3.60879,3.953216 -1.94831,0.972647 -4.31668,1.683747 -5.39137,3.758617 -0.55133,1.06027 -0.96153,2.27044 -0.93852,3.46943 0.47289,1.10144 1.89121,0.82242 2.84687,0.85547 2.49667,-0.0297 5.00048,0.0579 7.49297,-0.041 0.80265,-0.0535 1.72455,-0.92193 1.14258,-1.71679 -0.84115,-0.90126 -2.20511,-0.45883 -3.28867,-0.56641 -1.55156,0 -3.10313,0 -4.65469,0 0.27682,-1.33153 1.26402,-2.40215 2.51953,-2.88867 2.43254,-1.1558 5.24232,-2.20388 6.65624,-4.662572 1.06411,-1.858067 0.63138,-4.505542 -1.22655,-5.696815 -1.10853,-0.763979 -2.48725,-1.052626 -3.81836,-0.984374 z m 25.98047,0 c -2.28348,0.0501 -4.56976,1.267748 -5.60606,3.350762 -0.35165,0.77629 -0.80816,1.813091 -0.2748,2.598456 0.84367,0.730249 2.49188,0.625757 3.03125,-0.419922 0.11229,-1.486029 1.1112,-3.084808 2.71873,-3.1946 1.29733,-0.269383 2.48585,0.90809 2.40158,2.189129 -0.0176,2.016829 -2.07219,3.185469 -3.60878,3.949309 -1.94847,0.974067 -4.3184,1.682297 -5.39332,3.758617 -0.55077,1.06018 -0.96207,2.2706 -0.93852,3.46943 0.47339,1.10006 1.89127,0.82309 2.84687,0.85547 2.49667,-0.0297 5.00048,0.0579 7.49297,-0.041 0.80269,-0.0546 1.72541,-0.92136 1.14258,-1.71679 -0.84115,-0.90126 -2.20511,-0.45883 -3.28867,-0.56641 -1.55156,0 -3.10313,0 -4.65469,0 0.28174,-1.32902 1.26159,-2.40375 2.51953,-2.88867 2.43233,-1.15364 5.23897,-2.20291 6.65488,-4.658347 1.06364,-1.858794 0.63741,-4.511263 -1.22519,-5.70104 -1.1097,-0.764036 -2.48595,-1.053119 -3.81836,-0.984374 z m 15.66601,0.01367 c -1.00718,-0.05205 -1.67905,0.748113 -2.2141,1.483599 -2.70175,3.264638 -5.45194,6.493113 -8.12379,9.780082 -0.46154,0.92474 0.66701,1.59186 1.47657,1.5293 1.82096,0 3.64192,0 5.46289,0 -0.0965,1.04684 -0.41372,2.0927 -0.37891,3.14062 0.49225,1.09451 2.12734,1.05479 2.96289,0.38086 0.58013,-0.67767 0.37673,-1.67782 0.60107,-2.49552 0.0143,-0.69101 0.11813,-1.27855 0.94893,-1.02596 0.8612,0.0735 2.18653,-0.25548 2.11797,-1.33594 -0.24962,-1.07895 -1.61054,-1.00302 -2.47422,-0.97656 -0.2122,-0.3378 0.14008,-1.16402 0.13654,-1.68236 0.35381,-2.603094 0.80343,-5.202607 1.0994,-7.807886 -0.10294,-0.74229 -0.96986,-0.995881 -1.61524,-0.990235 z m -28.71484,0.01172 c -2.64403,0.138691 -4.71276,2.236345 -5.74833,4.533947 -1.3732,2.951408 -1.82233,6.555994 -0.43917,9.585204 0.79301,1.74998 2.71199,2.82964 4.61822,2.64893 2.67659,-0.0963 4.78355,-2.21955 5.82891,-4.53855 1.37142,-2.93688 1.82283,-6.520122 0.46681,-9.543207 -0.81925,-1.825315 -2.7449,-2.87883 -4.72644,-2.686324 z m 0.4082,2.3125 c 1.24514,0.2314 1.50683,1.721244 1.66066,2.771347 0.29695,2.668528 -0.2409,5.321344 -1.54387,7.676654 -0.53425,0.9752 -1.6394,2.09365 -2.84725,1.56568 -1.14386,-0.7564 -1.20607,-2.32249 -1.30469,-3.56445 -0.0838,-2.360097 0.46351,-4.674422 1.62167,-6.758444 0.51277,-0.849036 1.30338,-1.812758 2.41348,-1.690787 z m 25.24414,8.156261 c -1.09765,0 -2.19531,0 -3.29296,0 1.32942,-1.59767 2.65885,-3.195323 3.98828,-4.79298 -0.23177,1.597657 -0.46354,3.19531 -0.69532,4.79298 z" /><text
       xml:space="preserve"
       style="font-style:normal;font-variant:normal;font-weight:bold;font-stretch:normal;font-size:22.8989px;line-height:1.25;font-family:Gayathri;-inkscape-font-specification:'Gayathri Bold';text-align:center;text-anchor:middle;fill:#ffffff;stroke-width:0.429354"
       x="154.79767"
       y="48.970592"
       id="text39"
       transform="matrix(0.99856605,0,-0.14543834,1.001436,0,0)"><tspan
         sodipodi:role="line"
         id="tspan37"
         style="font-style:normal;font-variant:normal;font-weight:bold;font-stretch:normal;font-size:22.8989px;font-family:Gayathri;-inkscape-font-specification:'Gayathri Bold';fill:#ffffff;stroke-width:0.429354"
         x="154.79767"
         y="48.970592">PyDay </tspan><tspan
         sodipodi:role="line"
         style="font-style:normal;font-variant:normal;font-weight:bold;font-stretch:normal;font-size:22.8989px;font-family:Gayathri;-inkscape-font-specification:'Gayathri Bold';fill:#ffffff;stroke-width:0.429354"
         x="154.79767"
         y="77.594223"
         id="tspan38">NEA </tspan><tspan
         sodipodi:role="line"
         style="font-style:normal;font-variant:normal;font-weight:bold;font-stretch:normal;font-size:22.8989px;font-family:Gayathri;-inkscape-font-specification:'Gayathri Bold';fill:#ffffff;stroke-width:0.429354"
         x="154.79767"
         y="106.21784"
         id="tspan39">2024</tspan></text><rect
       style="opacity:0.3;fill:#000000;fill-opacity:1;stroke:#000000;stroke-width:0.160132;stroke-dasharray:none"
       id="rect42"
       width="99.177925"
       height="165.61389"
       x="-47.903027"
       y="-147.92952"
       ry="0"
       inkscape:transform-center-x="-73.429134"
       inkscape:transform-center-y="71.882374"
       transform="matrix(0.70513504,-0.70907304,0.70607099,0.70814106,0,0)" /><text
       xml:space="preserve"
       style="font-style:normal;font-variant:normal;font-weight:normal;font-stretch:normal;font-size:8.4909px;line-height:1.25;font-family:okolaks;-inkscape-font-specification:okolaks;text-align:center;text-anchor:middle;opacity:0.9;fill:#ffffff;stroke-width:0.159204"
       x="137.15123"
       y="11.731697"
       id="text2"
       transform="scale(0.99856605,1.001436)"><tspan
         sodipodi:role="line"
         id="tspan2"
         style="font-style:normal;font-variant:normal;font-weight:normal;font-stretch:normal;font-size:8.4909px;font-family:okolaks;-inkscape-font-specification:okolaks;fill:#ffffff;stroke-width:0.159204"
         x="137.15123"
         y="11.731697">Resistencia Chaco</tspan></text><text
       xml:space="preserve"
       style="font-style:normal;font-variant:normal;font-weight:normal;font-stretch:normal;font-size:8.4909px;line-height:1.25;font-family:okolaks;-inkscape-font-specification:okolaks;text-align:center;text-anchor:middle;opacity:0.9;fill:#ffffff;stroke-width:0.159204"
       x="32.674911"
       y="11.011786"
       id="text3"
       transform="scale(0.99856605,1.001436)"><tspan
         sodipodi:role="line"
         id="tspan3"
         style="font-style:normal;font-variant:normal;font-weight:normal;font-stretch:normal;font-size:8.4909px;font-family:okolaks;-inkscape-font-specification:okolaks;fill:#ffffff;stroke-width:0.159204"
         x="32.674911"
         y="11.011786">14/12/2024</tspan></text><text
       xml:space="preserve"
       style="font-style:normal;font-variant:normal;font-weight:normal;font-stretch:normal;font-size:8.4909px;line-height:1.25;font-family:okolaks;-inkscape-font-specification:okolaks;text-align:center;letter-spacing:0px;text-anchor:middle;opacity:0.9;fill:#ffffff;stroke-width:0.159204"
       x="151.42693"
       y="20.369196"
       id="text4"
       transform="scale(0.99856605,1.001436)"><tspan
         sodipodi:role="line"
         id="tspan4"
         style="font-style:normal;font-variant:normal;font-weight:normal;font-stretch:normal;font-size:8.4909px;font-family:okolaks;-inkscape-font-specification:okolaks;letter-spacing:0px;fill:#ffffff;stroke-width:0.159204"
         x="154.08034"
         y="20.369196">Pellegrini 69 </tspan></text></g></svg>
