<?xml version="1.0" encoding="UTF-8" standalone="no"?>
<!-- Created with Inkscape (http://www.inkscape.org/) -->

<svg
   width="551.578"
   height="705.32849"
   viewBox="0 0 145.93834 186.61816"
   version="1.1"
   id="svg1"
   xml:space="preserve"
   inkscape:version="1.4 (1:1.4+202410161351+e7c3feb100)"
   sodipodi:docname="PyDayNEA 2024 - vert.svg"
   inkscape:export-filename="pydaynea 2024 - vert.png"
   inkscape:export-xdpi="96"
   inkscape:export-ydpi="96"
   xmlns:inkscape="http://www.inkscape.org/namespaces/inkscape"
   xmlns:sodipodi="http://sodipodi.sourceforge.net/DTD/sodipodi-0.dtd"
   xmlns="http://www.w3.org/2000/svg"
   xmlns:svg="http://www.w3.org/2000/svg"><sodipodi:namedview
     id="namedview1"
     pagecolor="#ffffff"
     bordercolor="#666666"
     borderopacity="1.0"
     inkscape:showpageshadow="2"
     inkscape:pageopacity="0.0"
     inkscape:pagecheckerboard="0"
     inkscape:deskcolor="#d1d1d1"
     inkscape:document-units="mm"
     showguides="true"
     inkscape:zoom="0.7707143"
     inkscape:cx="289.34198"
     inkscape:cy="296.47821"
     inkscape:window-width="1920"
     inkscape:window-height="1007"
     inkscape:window-x="1920"
     inkscape:window-y="0"
     inkscape:window-maximized="1"
     inkscape:current-layer="layer1"
     showgrid="false"
     inkscape:export-bgcolor="#ffffffff"><sodipodi:guide
       position="184.40392,358.10681"
       orientation="0,-1"
       id="guide1"
       inkscape:locked="false" /></sodipodi:namedview><defs
     id="defs1" /><g
     inkscape:label="Capa 1"
     inkscape:groupmode="layer"
     id="layer1"
     transform="translate(22.297897,37.080345)"><rect
       style="fill:#3b5a72;fill-opacity:1;stroke:none;stroke-width:0.444051"
       id="rect4"
       width="186.61816"
       height="145.93834"
       x="-37.080345"
       y="-123.64044"
       transform="rotate(90)" /><rect
       style="opacity:0.3;fill:#000000;fill-opacity:1;stroke:#000000;stroke-width:0.160132;stroke-dasharray:none"
       id="rect41"
       width="99.177925"
       height="165.61389"
       x="-95.661194"
       y="-27.242998"
       ry="0"
       inkscape:transform-center-x="-73.429134"
       inkscape:transform-center-y="71.882374"
       transform="matrix(0.70907304,0.70513504,-0.70814106,0.70607099,0,0)" /><g
       id="g2"
       transform="matrix(0,-0.84410355,0.84410355,0,34.97144,98.504352)"><rect
         style="opacity:0.3;fill:#000000;fill-opacity:1;stroke:#000000;stroke-width:0.160132;stroke-dasharray:none"
         id="rect35"
         width="99.177925"
         height="165.61389"
         x="-6.9714327"
         y="-24.462564"
         ry="0"
         inkscape:transform-center-x="-73.429134"
         inkscape:transform-center-y="71.882374"
         transform="matrix(0.70907304,0.70513504,-0.70814106,0.70607099,0,0)" /><g
         id="g41"
         transform="rotate(90,73.121325,36.907015)"><ellipse
           style="fill:#314a5e;fill-opacity:1;stroke:none;stroke-width:1.0464"
           id="path2"
           cx="51.697628"
           cy="65.196556"
           rx="49.998852"
           ry="50.100334" /><path
           id="ellipse20"
           style="opacity:0.3;fill:#000000;fill-opacity:1;stroke-width:1.0505"
           d="m 39.562731,49.712455 6.229057,6.24696 -18.574396,18.627782 16.081125,16.127342 -0.934405,0.937087 21.970939,22.034084 A 50.016881,50.474289 35.811535 0 0 87.037121,100.63793 50.016881,50.474289 35.811535 0 0 100.04782,77.870296 L 61.995763,39.708871 53.582307,48.146507 52.43517,46.996072 42.629953,46.636418 Z" /><g
           id="g30"
           transform="matrix(0.41763132,0,0,0.41883163,-86.699622,-70.897354)"><path
             id="rect21"
             style="opacity:1;fill:#31bafe;fill-opacity:1;stroke:none;stroke-width:0.695189"
             d="m 325.31813,257.54759 c -13.22978,0 -23.8802,10.65093 -23.8802,23.88071 v 6.9572 h 28.97601 v -30.83791 z m -7.23109,11.28871 a 5.4168396,5.4168396 0 0 1 5.41673,5.41673 5.4168396,5.4168396 0 0 1 -5.41673,5.41672 5.4168396,5.4168396 0 0 1 -5.41724,-5.41672 5.4168396,5.4168396 0 0 1 5.41724,-5.41673 z m -29.04318,26.42888 c -13.2298,0 -23.8802,10.65091 -23.8802,23.88071 v 11.62152 c 0,13.22979 10.6504,23.88071 23.8802,23.88071 h 41.37008 v -59.38294 z" /><path
             id="path30"
             style="opacity:1;fill:#fbb44c;fill-opacity:1;stroke:none;stroke-width:0.695189"
             d="m 334.78783,395.92397 c 13.22978,0 23.8802,-10.65093 23.8802,-23.88071 v -6.9572 h -28.97601 v 30.83791 z m 7.23109,-11.28871 a 5.4168396,5.4168396 0 0 1 -5.41673,-5.41673 5.4168396,5.4168396 0 0 1 5.41673,-5.41672 5.4168396,5.4168396 0 0 1 5.41724,5.41672 5.4168396,5.4168396 0 0 1 -5.41724,5.41673 z m 29.04318,-26.42888 c 13.2298,0 23.8802,-10.65091 23.8802,-23.88071 v -11.62152 c 0,-13.22979 -10.6504,-23.88071 -23.8802,-23.88071 h -41.37008 v 59.38294 z" /><path
             id="rect22"
             style="opacity:1;fill:#2b9ed7;fill-opacity:1;stroke:none;stroke-width:0.552045"
             d="m 329.69202,327.15832 h 7.3117 c 13.2617,0 23.93807,-10.67639 23.93807,-23.93807 v -21.56561 c 0,-13.26169 -10.67637,-23.93807 -23.93807,-23.93807 h -7.3117 z" /><path
             id="path29"
             style="opacity:1;fill:#ffd25d;fill-opacity:1;stroke:none;stroke-width:0.552045"
             d="m 329.69202,395.99554 v -69.44175 h -4.33772 c -13.26169,0 -23.93807,10.67638 -23.93807,23.93807 v 21.56561 c 0,13.26168 10.67638,23.93807 23.93807,23.93807 z" /></g></g></g><rect
       style="opacity:0.3;fill:#000000;fill-opacity:1;stroke:#000000;stroke-width:0.160132;stroke-dasharray:none"
       id="rect42"
       width="99.177925"
       height="165.61389"
       x="7.87995"
       y="-234.03589"
       ry="0"
       inkscape:transform-center-x="-73.429134"
       inkscape:transform-center-y="71.882374"
       transform="matrix(0.70907304,0.70513504,-0.70814106,0.70607099,0,0)" /><text
       xml:space="preserve"
       style="font-style:normal;font-variant:normal;font-weight:normal;font-stretch:normal;font-size:8.4909px;line-height:1.25;font-family:okolaks;-inkscape-font-specification:okolaks;text-align:center;text-anchor:middle;opacity:0.9;fill:#ffffff;stroke-width:0.159204"
       x="50.918163"
       y="115.93893"
       id="text2"
       transform="scale(0.99856605,1.001436)"><tspan
         sodipodi:role="line"
         id="tspan2"
         style="font-style:normal;font-variant:normal;font-weight:normal;font-stretch:normal;font-size:8.4909px;font-family:okolaks;-inkscape-font-specification:okolaks;fill:#ffffff;stroke-width:0.159204"
         x="50.918163"
         y="115.93893">Resistencia Chaco</tspan></text><g
       id="g5"
       transform="translate(1.7640293)"><text
         xml:space="preserve"
         style="font-style:normal;font-variant:normal;font-weight:normal;font-stretch:normal;font-size:8.46667px;line-height:1.25;font-family:okolaks;-inkscape-font-specification:okolaks;text-align:center;text-anchor:middle;opacity:0.9;fill:#ffffff;stroke-width:0.159204"
         x="17.416611"
         y="106.00143"
         id="text3"
         transform="scale(0.99856605,1.001436)"><tspan
           sodipodi:role="line"
           id="tspan3"
           style="font-style:normal;font-variant:normal;font-weight:normal;font-stretch:normal;font-size:8.46667px;font-family:okolaks;-inkscape-font-specification:okolaks;fill:#ffffff;stroke-width:0.159204"
           x="17.416611"
           y="106.00143">14/12/2024</tspan></text><text
         xml:space="preserve"
         style="font-style:normal;font-variant:normal;font-weight:normal;font-stretch:normal;font-size:8.46667px;line-height:1.25;font-family:okolaks;-inkscape-font-specification:okolaks;text-align:center;letter-spacing:0px;text-anchor:middle;opacity:0.9;fill:#ffffff;stroke-width:0.159204"
         x="76.495171"
         y="106.00143"
         id="text4"
         transform="scale(0.99856605,1.001436)"><tspan
           sodipodi:role="line"
           id="tspan4"
           style="font-style:normal;font-variant:normal;font-weight:normal;font-stretch:normal;font-size:8.46667px;font-family:okolaks;-inkscape-font-specification:okolaks;letter-spacing:0px;fill:#ffffff;stroke-width:0.159204"
           x="79.141006"
           y="106.00143">Pellegrini 69 </tspan></text></g><g
       id="g3"
       transform="matrix(1.4994947,0,0,1.4994947,527.63374,-62.558645)"><text
         xml:space="preserve"
         style="font-style:normal;font-variant:normal;font-weight:bold;font-stretch:normal;font-size:12.0732px;line-height:1.25;font-family:Gayathri;-inkscape-font-specification:'Gayathri Bold';font-variation-settings:normal;text-align:center;text-anchor:middle;opacity:0.5;vector-effect:none;fill:#000000;fill-opacity:1;stroke-width:0.226371;stroke-linecap:butt;stroke-linejoin:miter;stroke-miterlimit:4;stroke-dasharray:none;stroke-dashoffset:0;stroke-opacity:1;-inkscape-stroke:none;stop-color:#000000"
         x="-312.40338"
         y="35.705559"
         id="text14"
         transform="matrix(0.99856605,0,-0.14543834,1.001436,0,0)"><tspan
           sodipodi:role="line"
           style="font-style:normal;font-variant:normal;font-weight:bold;font-stretch:normal;font-size:12.0732px;font-family:Gayathri;-inkscape-font-specification:'Gayathri Bold';font-variation-settings:normal;vector-effect:none;fill:#000000;fill-opacity:1;stroke-width:0.226371;stroke-linecap:butt;stroke-linejoin:miter;stroke-miterlimit:4;stroke-dasharray:none;stroke-dashoffset:0;stroke-opacity:1;-inkscape-stroke:none;stop-color:#000000;stop-opacity:1"
           x="-312.40338"
           y="35.705559"
           id="tspan13">PyDay NEA </tspan><tspan
           sodipodi:role="line"
           style="font-style:normal;font-variant:normal;font-weight:bold;font-stretch:normal;font-size:12.0732px;font-family:Gayathri;-inkscape-font-specification:'Gayathri Bold';font-variation-settings:normal;vector-effect:none;fill:#000000;fill-opacity:1;stroke-width:0.226371;stroke-linecap:butt;stroke-linejoin:miter;stroke-miterlimit:4;stroke-dasharray:none;stroke-dashoffset:0;stroke-opacity:1;-inkscape-stroke:none;stop-color:#000000;stop-opacity:1"
           x="-312.40338"
           y="50.797058"
           id="tspan14">2024</tspan></text><text
         xml:space="preserve"
         style="font-style:normal;font-variant:normal;font-weight:bold;font-stretch:normal;font-size:12.0732px;line-height:1.25;font-family:Gayathri;-inkscape-font-specification:'Gayathri Bold';text-align:center;text-anchor:middle;fill:#ffffff;stroke-width:0.226371"
         x="-313.01025"
         y="35.177151"
         id="text39-9"
         transform="matrix(0.99856605,0,-0.14543834,1.001436,0,0)"><tspan
           sodipodi:role="line"
           style="font-style:normal;font-variant:normal;font-weight:bold;font-stretch:normal;font-size:12.0732px;font-family:Gayathri;-inkscape-font-specification:'Gayathri Bold';fill:#ffffff;stroke-width:0.226371"
           x="-313.01025"
           y="35.177151"
           id="tspan38">PyDay NEA </tspan><tspan
           sodipodi:role="line"
           style="font-style:normal;font-variant:normal;font-weight:bold;font-stretch:normal;font-size:12.0732px;font-family:Gayathri;-inkscape-font-specification:'Gayathri Bold';fill:#ffffff;stroke-width:0.226371"
           x="-313.01025"
           y="50.26865"
           id="tspan39-1">2024</tspan></text></g></g></svg>
